<svg xmlns="http://www.w3.org/2000/svg" id="parking-facility" viewBox="0 0 22 20">
          <path d="M18.265 11.322c-.14-.833-.6-3.383-1.096-4.348-.332-.642-1.18-1.134-2.524-1.46-1.09-.264-2.486-.41-3.927-.41-1.443 0-2.838.145-3.93.41-1.342.327-2.19.818-2.522 1.46-.496.964-.955 3.515-1.096 4.348-.758.505-1.13 1.234-1.13 2.204v2.632c0 .686.453 1.27 1.084 1.488v1.143c0 .58.487 1.052 1.085 1.052h1.085c.598 0 1.085-.473 1.085-1.053v-1.053h8.677v1.052c0 .58.487 1.052 1.085 1.052h1.084c.598 0 1.085-.473 1.085-1.053v-1.144a1.585 1.585 0 0 0 1.086-1.488v-2.632c0-.97-.373-1.7-1.13-2.204zm-7.542-5.39c3.247 0 5.352.706 5.686 1.373.322.645.68 2.352.903 3.572a5.8 5.8 0 0 0-.34-.09c-.3-.07-1.075-.148-1.42-.195l-2.86-2.165c-.252-.18-.547-.117-.728.135-.182.25-.135.45.117.63l1.763 1.26c-.957-.03-2.006-.03-3.123-.03-.132 0-.595.013-.726.013L7.03 8.427c-.26-.172-.51-.124-.68.135-.173.258-.137.47.122.643l1.85 1.23c-1.51.027-2.822.108-3.85.352a8.33 8.33 0 0 0-.34.09c.223-1.22.58-2.927.905-3.572.334-.666 2.44-1.374 5.686-1.374zM5.536 19.098H3.974v-1.363h1.562V19.1zm10.373 0v-1.363h1.56V19.1h-1.56zm2.64-2.755c0 .316-.25.572-.558.572H3.452a.566.566 0 0 1-.558-.572V13.48c0-1.058.543-1.623 1.876-1.948 1.404-.342 3.512-.342 5.953-.342 2.44 0 4.547 0 5.952.342 1.333.325 1.876.89 1.876 1.948v2.864zM5.84 15.295c.707 0 1.282-.557 1.282-1.243s-.575-1.244-1.282-1.244c-.707 0-1.282.558-1.282 1.244 0 .686.575 1.244 1.282 1.244zm0-1.658c.236 0 .427.186.427.415a.42.42 0 0 1-.427.415.42.42 0 0 1-.427-.415c0-.23.19-.415.428-.415zm9.76 1.66c.708 0 1.283-.56 1.283-1.245s-.574-1.244-1.28-1.244c-.707 0-1.282.558-1.282 1.244 0 .686.575 1.244 1.28 1.244zm0-1.66c.237 0 .43.186.43.415a.42.42 0 0 1-.43.415.42.42 0 0 1-.426-.415c0-.23.19-.415.427-.415zM21.51 2.882c.364.093.57.416.46.72l-.024.064c-.11.303-.5.475-.864.382L11.015 1.275.918 4.048c-.364.093-.753-.08-.864-.382L.03 3.6c-.11-.303.096-.626.46-.72L11.014 0 21.51 2.882z"></path>
        </svg>